<svg id="visual" viewBox="0 0 900 600" width="900" height="600" xmlns="http://www.w3.org/2000/svg" xmlns:xlink="http://www.w3.org/1999/xlink" version="1.1"><rect x="0" y="0" width="900" height="600" fill="#DDBEA9"></rect><defs><linearGradient id="grad1_0" x1="33.3%" y1="0%" x2="100%" y2="100%"><stop offset="20%" stop-color="#ddbea9" stop-opacity="1"></stop><stop offset="80%" stop-color="#ddbea9" stop-opacity="1"></stop></linearGradient></defs><defs><linearGradient id="grad2_0" x1="0%" y1="0%" x2="66.7%" y2="100%"><stop offset="20%" stop-color="#ddbea9" stop-opacity="1"></stop><stop offset="80%" stop-color="#ddbea9" stop-opacity="1"></stop></linearGradient></defs><g transform="translate(900, 0)"><path d="M0 378.6C-43.6 347.9 -87.2 317.1 -119.8 289.2C-152.4 261.2 -173.9 236 -215.7 215.7C-257.4 195.4 -319.3 180 -349.8 144.9C-380.3 109.8 -379.4 54.9 -378.6 0L0 0Z" fill="#6B705C"></path></g><g transform="translate(0, 600)"><path d="M0 -378.6C52.2 -375.9 104.4 -373.3 144.9 -349.8C185.4 -326.2 214.2 -281.8 244 -244C273.7 -206.2 304.5 -175 327.1 -135.5C349.7 -95.9 364.1 -48 378.6 0L0 0Z" fill="#6B705C"></path></g></svg>