<svg id="visual" viewBox="0 0 900 600" width="900" height="600" xmlns="http://www.w3.org/2000/svg" xmlns:xlink="http://www.w3.org/1999/xlink" version="1.1"><rect x="0" y="0" width="900" height="600" fill="#DDBEA9"></rect><defs><linearGradient id="grad1_0" x1="33.3%" y1="100%" x2="100%" y2="0%"><stop offset="20%" stop-color="#ddbea9" stop-opacity="1"></stop><stop offset="80%" stop-color="#ddbea9" stop-opacity="1"></stop></linearGradient></defs><defs><linearGradient id="grad2_0" x1="0%" y1="100%" x2="66.7%" y2="0%"><stop offset="20%" stop-color="#ddbea9" stop-opacity="1"></stop><stop offset="80%" stop-color="#ddbea9" stop-opacity="1"></stop></linearGradient></defs><g transform="translate(900, 600)"><path d="M-378.6 0C-372.9 -49.3 -367.1 -98.6 -349.8 -144.9C-332.4 -191.2 -303.4 -234.5 -266.6 -266.6C-229.7 -298.7 -185 -319.5 -139.3 -336.3C-93.6 -353.1 -46.8 -365.8 0 -378.6L0 0Z" fill="#6B705C"></path></g><g transform="translate(0, 0)"><path d="M378.6 0C345 37.3 311.4 74.5 298.4 123.6C285.4 172.7 293 233.5 267.7 267.7C242.4 301.9 184 309.3 133.9 323.4C83.8 337.4 41.9 358 0 378.6L0 0Z" fill="#6B705C"></path></g></svg>