<svg id="visual" viewBox="0 0 900 600" width="900" height="600" xmlns="http://www.w3.org/2000/svg" xmlns:xlink="http://www.w3.org/1999/xlink" version="1.1"><rect x="0" y="0" width="900" height="600" fill="#001220"></rect><path d="M0 127L8.8 130.7C17.7 134.3 35.3 141.7 53 145.2C70.7 148.7 88.3 148.3 106 148C123.7 147.7 141.3 147.3 159 145.3C176.7 143.3 194.3 139.7 212 134.8C229.7 130 247.3 124 265 120.7C282.7 117.3 300.3 116.7 318 116C335.7 115.3 353.3 114.7 371 115C388.7 115.3 406.3 116.7 423.8 117.3C441.3 118 458.7 118 476.2 120.3C493.7 122.7 511.3 127.3 529 126.8C546.7 126.3 564.3 120.7 582 122.8C599.7 125 617.3 135 635 136.3C652.7 137.7 670.3 130.3 688 125C705.7 119.7 723.3 116.3 741 115.2C758.7 114 776.3 115 794 115.5C811.7 116 829.3 116 847 119C864.7 122 882.3 128 891.2 131L900 134L900 0L891.2 0C882.3 0 864.7 0 847 0C829.3 0 811.7 0 794 0C776.3 0 758.7 0 741 0C723.3 0 705.7 0 688 0C670.3 0 652.7 0 635 0C617.3 0 599.7 0 582 0C564.3 0 546.7 0 529 0C511.3 0 493.7 0 476.2 0C458.7 0 441.3 0 423.8 0C406.3 0 388.7 0 371 0C353.3 0 335.7 0 318 0C300.3 0 282.7 0 265 0C247.3 0 229.7 0 212 0C194.3 0 176.7 0 159 0C141.3 0 123.7 0 106 0C88.3 0 70.7 0 53 0C35.3 0 17.7 0 8.8 0L0 0Z" fill="#4facf7"></path><path d="M0 92L8.8 92.3C17.7 92.7 35.3 93.3 53 95.5C70.7 97.7 88.3 101.3 106 103.2C123.7 105 141.3 105 159 101.2C176.7 97.3 194.3 89.7 212 85.5C229.7 81.3 247.3 80.7 265 80C282.7 79.3 300.3 78.7 318 79.2C335.7 79.7 353.3 81.3 371 80C388.7 78.7 406.3 74.3 423.8 77.3C441.3 80.3 458.7 90.7 476.2 92.8C493.7 95 511.3 89 529 87.3C546.7 85.7 564.3 88.3 582 89.8C599.7 91.3 617.3 91.7 635 88.2C652.7 84.7 670.3 77.3 688 79.5C705.7 81.7 723.3 93.3 741 95C758.7 96.7 776.3 88.3 794 85.3C811.7 82.3 829.3 84.7 847 83.8C864.7 83 882.3 79 891.2 77L900 75L900 0L891.2 0C882.3 0 864.7 0 847 0C829.3 0 811.7 0 794 0C776.3 0 758.7 0 741 0C723.3 0 705.7 0 688 0C670.3 0 652.7 0 635 0C617.3 0 599.7 0 582 0C564.3 0 546.7 0 529 0C511.3 0 493.7 0 476.2 0C458.7 0 441.3 0 423.8 0C406.3 0 388.7 0 371 0C353.3 0 335.7 0 318 0C300.3 0 282.7 0 265 0C247.3 0 229.7 0 212 0C194.3 0 176.7 0 159 0C141.3 0 123.7 0 106 0C88.3 0 70.7 0 53 0C35.3 0 17.7 0 8.8 0L0 0Z" fill="#008cff"></path><path d="M0 59L8.8 58.7C17.7 58.3 35.3 57.7 53 53C70.7 48.3 88.3 39.7 106 39.2C123.7 38.7 141.3 46.3 159 49.2C176.7 52 194.3 50 212 49.8C229.7 49.7 247.3 51.3 265 49.8C282.7 48.3 300.3 43.7 318 44.2C335.7 44.7 353.3 50.3 371 49.2C388.7 48 406.3 40 423.8 38C441.3 36 458.7 40 476.2 41.8C493.7 43.7 511.3 43.3 529 43.8C546.7 44.3 564.3 45.7 582 45.7C599.7 45.7 617.3 44.3 635 44.8C652.7 45.3 670.3 47.7 688 48.8C705.7 50 723.3 50 741 46.8C758.7 43.7 776.3 37.3 794 35.2C811.7 33 829.3 35 847 39C864.7 43 882.3 49 891.2 52L900 55L900 0L891.2 0C882.3 0 864.7 0 847 0C829.3 0 811.7 0 794 0C776.3 0 758.7 0 741 0C723.3 0 705.7 0 688 0C670.3 0 652.7 0 635 0C617.3 0 599.7 0 582 0C564.3 0 546.7 0 529 0C511.3 0 493.7 0 476.2 0C458.7 0 441.3 0 423.8 0C406.3 0 388.7 0 371 0C353.3 0 335.7 0 318 0C300.3 0 282.7 0 265 0C247.3 0 229.7 0 212 0C194.3 0 176.7 0 159 0C141.3 0 123.7 0 106 0C88.3 0 70.7 0 53 0C35.3 0 17.7 0 8.8 0L0 0Z" fill="#0066ff"></path></svg>