<svg id="visual" viewBox="0 0 900 600" width="900" height="600" xmlns="http://www.w3.org/2000/svg" xmlns:xlink="http://www.w3.org/1999/xlink" version="1.1"><rect x="0" y="0" width="900" height="600" fill="#001322"></rect><path d="M0 416L21.5 410.2C43 404.3 86 392.7 128.8 395.5C171.7 398.3 214.3 415.7 257.2 426.3C300 437 343 441 385.8 439.5C428.7 438 471.3 431 514.2 425.8C557 420.7 600 417.3 642.8 413.2C685.7 409 728.3 404 771.2 397.2C814 390.3 857 381.7 878.5 377.3L900 373L900 601L878.5 601C857 601 814 601 771.2 601C728.3 601 685.7 601 642.8 601C600 601 557 601 514.2 601C471.3 601 428.7 601 385.8 601C343 601 300 601 257.2 601C214.3 601 171.7 601 128.8 601C86 601 43 601 21.5 601L0 601Z" fill="#e35d54"></path><path d="M0 413L21.5 410C43 407 86 401 128.8 405.2C171.7 409.3 214.3 423.7 257.2 437.8C300 452 343 466 385.8 462.8C428.7 459.7 471.3 439.3 514.2 433.5C557 427.7 600 436.3 642.8 438.8C685.7 441.3 728.3 437.7 771.2 439C814 440.3 857 446.7 878.5 449.8L900 453L900 601L878.5 601C857 601 814 601 771.2 601C728.3 601 685.7 601 642.8 601C600 601 557 601 514.2 601C471.3 601 428.7 601 385.8 601C343 601 300 601 257.2 601C214.3 601 171.7 601 128.8 601C86 601 43 601 21.5 601L0 601Z" fill="#cc4c76"></path><path d="M0 472L21.5 471.2C43 470.3 86 468.7 128.8 474.7C171.7 480.7 214.3 494.3 257.2 498.2C300 502 343 496 385.8 493.7C428.7 491.3 471.3 492.7 514.2 492.5C557 492.3 600 490.7 642.8 491C685.7 491.3 728.3 493.7 771.2 497C814 500.3 857 504.7 878.5 506.8L900 509L900 601L878.5 601C857 601 814 601 771.2 601C728.3 601 685.7 601 642.8 601C600 601 557 601 514.2 601C471.3 601 428.7 601 385.8 601C343 601 300 601 257.2 601C214.3 601 171.7 601 128.8 601C86 601 43 601 21.5 601L0 601Z" fill="#a14c8d"></path><path d="M0 527L21.5 528.7C43 530.3 86 533.7 128.8 527.5C171.7 521.3 214.3 505.7 257.2 501.3C300 497 343 504 385.8 510.5C428.7 517 471.3 523 514.2 528C557 533 600 537 642.8 537.2C685.7 537.3 728.3 533.7 771.2 528.3C814 523 857 516 878.5 512.5L900 509L900 601L878.5 601C857 601 814 601 771.2 601C728.3 601 685.7 601 642.8 601C600 601 557 601 514.2 601C471.3 601 428.7 601 385.8 601C343 601 300 601 257.2 601C214.3 601 171.7 601 128.8 601C86 601 43 601 21.5 601L0 601Z" fill="#695093"></path><path d="M0 561L21.5 556.5C43 552 86 543 128.8 537C171.7 531 214.3 528 257.2 527.5C300 527 343 529 385.8 530C428.7 531 471.3 531 514.2 538C557 545 600 559 642.8 563.7C685.7 568.3 728.3 563.7 771.2 555.7C814 547.7 857 536.3 878.5 530.7L900 525L900 601L878.5 601C857 601 814 601 771.2 601C728.3 601 685.7 601 642.8 601C600 601 557 601 514.2 601C471.3 601 428.7 601 385.8 601C343 601 300 601 257.2 601C214.3 601 171.7 601 128.8 601C86 601 43 601 21.5 601L0 601Z" fill="#294f86"></path></svg>