<svg id="visual" viewBox="0 0 900 600" width="900" height="600" xmlns="http://www.w3.org/2000/svg" xmlns:xlink="http://www.w3.org/1999/xlink" version="1.1"><rect x="0" y="0" width="900" height="600" fill="#e5e5e5"></rect><path d="M95 0L96 10C97 20 99 40 98.7 60C98.3 80 95.7 100 93.3 120C91 140 89 160 84.7 180C80.3 200 73.7 220 70.7 240C67.7 260 68.3 280 68.3 300C68.3 320 67.7 340 68.3 360C69 380 71 400 74.2 420C77.3 440 81.7 460 85.5 480C89.3 500 92.7 520 90.7 540C88.7 560 81.3 580 77.7 590L74 600" fill="none" stroke="#14213d" stroke-width="12" stroke-linecap="round" stroke-linejoin="miter"></path></svg>